<?xml version="1.0"?>
<svg xmlns="http://www.w3.org/2000/svg" id="Layer_1" data-name="Layer 1" viewBox="0 0 128 128" width="512" height="512"><path d="M103.772,103.2,98.237,64.189A6.942,6.942,0,0,0,91.4,58.25H71.133l.051-1.329h4.233a1.75,1.75,0,0,0,1.75-1.75V53.489a28.151,28.151,0,0,1,2.5-12.013A17.278,17.278,0,0,0,63.2,16.938,17.312,17.312,0,0,0,46.722,33.847,17.075,17.075,0,0,0,48.075,40.9a32.386,32.386,0,0,1,2.758,12.593v1.679a1.75,1.75,0,0,0,1.75,1.75h4.233l.051,1.329H36.6a6.942,6.942,0,0,0-6.841,5.939L27.421,80.695a1.767,1.767,0,0,0-.056.4l-.79,5.566a1.745,1.745,0,0,0-.089.524c0,.02.006.039.006.059l-.763,5.379a1.736,1.736,0,0,0-.118.617c0,.043.01.082.013.124l-1.4,9.839a6.909,6.909,0,0,0,6.841,7.881H96.931a6.909,6.909,0,0,0,6.841-7.881ZM57.751,81.192A1.751,1.751,0,0,0,59.5,82.875h9a1.751,1.751,0,0,0,1.749-1.683l.595-15.442h1.125a7.414,7.414,0,0,1,7.406,7.406V89.094A7.414,7.414,0,0,1,71.969,96.5H56.031a7.414,7.414,0,0,1-7.406-7.406V73.156a7.414,7.414,0,0,1,7.406-7.406h1.125ZM51.3,39.534a13.612,13.612,0,0,1-1.076-5.617A13.975,13.975,0,0,1,63.359,20.435,13.769,13.769,0,0,1,76.5,39.993a31.6,31.6,0,0,0-2.831,13.428H54.333A35.867,35.867,0,0,0,51.3,39.534ZM67.681,56.921l-.865,22.454H61.184l-.865-22.454ZM99.506,106.4a3.408,3.408,0,0,1-2.575,1.175H31.069a3.412,3.412,0,0,1-3.377-3.889l1.236-8.7h5.947a1.75,1.75,0,1,0,0-3.5H29.424l.363-2.555H35.75a1.75,1.75,0,0,0,0-3.5H30.284l.362-2.555h5.979a1.75,1.75,0,0,0,0-3.5H31.143l.362-2.555h6a1.75,1.75,0,0,0,0-3.5H32l1.226-8.638A3.426,3.426,0,0,1,36.6,61.75H57l.02.5h-.991A10.919,10.919,0,0,0,45.125,73.156V89.094A10.919,10.919,0,0,0,56.031,100H71.969A10.919,10.919,0,0,0,82.875,89.094V73.156A10.919,10.919,0,0,0,71.969,62.25h-.991l.02-.5H91.4a3.426,3.426,0,0,1,3.376,2.932l5.536,39.008A3.41,3.41,0,0,1,99.506,106.4Z"/><path d="M61.963,22.56c-7.875,2.112-8.829,8.848-8.865,9.134a1.744,1.744,0,0,0,1.5,1.95,1.909,1.909,0,0,0,.237.015,1.758,1.758,0,0,0,1.733-1.5c.028-.192.75-4.724,6.3-6.214a1.75,1.75,0,1,0-.907-3.38Z"/></svg>
