<svg height="512" viewBox="0 0 64 64" width="512" xmlns="http://www.w3.org/2000/svg"><g id="Layer_19" data-name="Layer 19"><path d="m47 1a16 16 0 1 0 16 16 16 16 0 0 0 -16-16zm0 30a14 14 0 1 1 14-14 14 14 0 0 1 -14 14z"/><path d="m17 31a16 16 0 1 0 16 16 16 16 0 0 0 -16-16zm0 30a14 14 0 1 1 14-14 14 14 0 0 1 -14 14z"/><path d="m54 7h-14a1 1 0 0 0 -1 1v18a1 1 0 0 0 1 1h14a1 1 0 0 0 1-1v-18a1 1 0 0 0 -1-1zm-1 18h-12v-16h12z"/><path d="m43 12h8v2h-8z"/><path d="m43 16h8v2h-8z"/><path d="m43 20h8v2h-8z"/><path d="m17 42a2 2 0 0 1 2 2h2a4 4 0 0 0 -3-3.86v-2.14h-2v2.14a4 4 0 0 0 1 7.86 2 2 0 1 1 -2 2h-2a4 4 0 0 0 3 3.86v2.14h2v-2.14a4 4 0 0 0 -1-7.86 2 2 0 0 1 0-4z"/><path d="m17 35a12 12 0 1 0 12 12 12 12 0 0 0 -12-12zm0 22a10 10 0 1 1 10-10 10 10 0 0 1 -10 10z"/><path d="m46.13 50.15 1.23 1.57c.54-.42 1.07-.87 1.58-1.33l-1.36-1.47c-.46.42-.95.84-1.45 1.23z"/><path d="m51.27 44.57 1.67 1.09c.38-.57.73-1.17 1.06-1.77l-1.76-1c-.3.6-.63 1.11-.97 1.68z"/><path d="m53.08 41.22 1.83.81c.27-.63.52-1.28.75-1.93l-1.89-.65c-.21.6-.44 1.2-.69 1.77z"/><path d="m48.93 47.57 1.47 1.35c.47-.5.92-1 1.34-1.57l-1.58-1.23c-.39.49-.8.98-1.23 1.45z"/><path d="m54.31 37.63 1.94.49c.16-.66.3-1.34.42-2l-2-.32c-.08.6-.21 1.2-.36 1.83z"/><path d="m54.92 33.88 2 .16c0-.67.08-1.36.08-2h-2c0 .59 0 1.22-.08 1.84z"/><path d="m39.48 53.76.65 1.89c.65-.22 1.3-.48 1.92-.75l-.8-1.83q-.87.38-1.77.69z"/><path d="m43 52.23.91 1.77c.6-.33 1.2-.69 1.77-1.06l-1.09-1.68c-.53.34-1.08.67-1.59.97z"/><path d="m32 55v2c.69 0 1.38 0 2.06-.08l-.16-2c-.62.08-1.26.08-1.9.08z"/><path d="m35.8 54.69.32 2c.68-.11 1.36-.25 2-.42l-.49-1.94c-.58.12-1.21.25-1.83.36z"/><path d="m24.52 10.24-.65-1.89c-.65.22-1.29.48-1.92.75l.8 1.84c.58-.26 1.18-.49 1.77-.7z"/><path d="m21 11.77-.91-1.77c-.6.33-1.2.69-1.77 1.06l1.09 1.68c.53-.34 1.08-.67 1.59-.97z"/><path d="m17.87 13.85-1.23-1.57c-.55.42-1.08.87-1.58 1.33l1.36 1.47c.46-.42.95-.84 1.45-1.23z"/><path d="m32 9v-2c-.69 0-1.38 0-2.06.08l.16 2c.62-.08 1.26-.08 1.9-.08z"/><path d="m28.2 9.31-.32-2c-.68.11-1.36.25-2 .42l.49 1.94c.63-.12 1.21-.25 1.83-.36z"/><path d="m15.07 16.43-1.47-1.35c-.46.5-.91 1-1.34 1.57l1.58 1.23c.39-.5.81-.99 1.23-1.45z"/><path d="m9.08 30.12-2-.16c-.08.67-.08 1.36-.08 2.04h2c0-.63 0-1.26.08-1.88z"/><path d="m9.69 26.37-1.94-.49c-.16.66-.3 1.34-.42 2l2 .32c.08-.6.21-1.2.36-1.83z"/><path d="m12.73 19.43-1.67-1.09c-.38.58-.74 1.18-1.06 1.77l1.76.95c.3-.55.63-1.06.97-1.63z"/><path d="m10.92 22.78-1.83-.78c-.27.63-.52 1.28-.75 1.93l1.89.65c.21-.58.44-1.23.69-1.8z"/></g></svg>